<?xml version="1.0" encoding="utf-8"?>
<!-- Generator: Adobe Illustrator 16.0.4, SVG Export Plug-In . SVG Version: 6.00 Build 0)  -->
<!DOCTYPE svg PUBLIC "-//W3C//DTD SVG 1.1//EN" "http://www.w3.org/Graphics/SVG/1.1/DTD/svg11.dtd">
<svg version="1.1" id="Layer_1" xmlns="http://www.w3.org/2000/svg" xmlns:xlink="http://www.w3.org/1999/xlink" x="0px" y="0px"
	 width="184.447px" height="17.428px" viewBox="0 0 184.447 17.428" enable-background="new 0 0 184.447 17.428"
	 xml:space="preserve">
<g>
	<g>
		<path d="M132.707,8.902l-1.855,2.302v5.942h-3.195V0h3.195v7.023L136.512,0h3.875l-5.425,6.67l5.919,10.476h-3.641L132.707,8.902z
			"/>
		<path d="M142.101,3.406h3.147v1.691c0.916-1.198,2.349-1.973,4.11-1.973c3.382,0,5.449,2.208,5.449,5.872v8.15h-3.218V9.325
			c0-2.114-1.034-3.453-3.101-3.453c-1.809,0-3.218,1.339-3.218,3.734v7.54h-3.171V3.406z"/>
		<path d="M156.427,10.288c0-3.993,3.147-7.164,7.117-7.164c3.946,0,7.116,3.171,7.116,7.164c0,3.969-3.17,7.14-7.116,7.14
			C159.574,17.428,156.427,14.257,156.427,10.288z M167.537,10.288c0-2.302-1.762-4.181-3.993-4.181
			c-2.278,0-3.993,1.879-3.993,4.181c0,2.278,1.715,4.157,3.993,4.157C165.775,14.445,167.537,12.566,167.537,10.288z"/>
		<path d="M175.24,10.146l-4.979-6.741h3.875l3.124,4.369l3.101-4.369h3.757l-4.932,6.788l5.261,6.952h-3.875l-3.358-4.58
			l-3.265,4.58h-3.875L175.24,10.146z"/>
	</g>
	<g>
		<polygon points="94.288,13.296 94.2,13.296 90.455,0.521 84.414,0.521 84.414,16.632 88.414,16.632 88.189,3.411 88.279,3.411 
			92.302,16.632 98.099,16.632 98.099,0.521 94.067,0.521 		"/>
		<polygon points="17.425,0.521 14.409,16.799 18.808,16.799 21.035,2.022 21.127,2.022 23.299,16.799 27.67,16.799 24.67,0.521 		
			"/>
		<polygon points="42.021,0.521 40.012,12.967 39.923,12.967 37.92,0.521 31.281,0.521 30.921,16.799 34.991,16.799 35.094,2.16 
			35.184,2.16 37.906,16.799 42.035,16.799 44.754,2.164 44.842,2.16 44.947,16.799 49.021,16.799 48.66,0.521 		"/>
		<path d="M4.326,4.706C4.248,4.373,4.266,4.042,4.309,3.855c0.117-0.522,0.47-1.093,1.487-1.093c0.956,0,1.513,0.588,1.513,1.474
			c0,0.296,0,1.004,0,1.004h4.062V4.103C11.371,0.555,8.188,0,5.882,0c-2.895,0-5.255,0.96-5.69,3.616
			C0.072,4.334,0.057,4.985,0.23,5.808c0.705,3.326,6.489,4.29,7.328,6.396c0.158,0.393,0.105,0.9,0.031,1.207
			c-0.133,0.531-0.498,1.086-1.586,1.086c-1.016,0-1.637-0.582-1.637-1.469l-0.003-1.581H0v1.26c0,3.63,2.855,4.722,5.914,4.722
			c2.948,0,5.366-1,5.756-3.715c0.199-1.409,0.053-2.331-0.018-2.675C10.963,7.627,4.789,6.618,4.326,4.706z"/>
		<path d="M57.285,4.747c-0.078-0.326-0.057-0.654-0.02-0.837c0.115-0.52,0.463-1.085,1.473-1.085c0.944,0,1.498,0.582,1.498,1.453
			c0,0.299,0,0.997,0,0.997h4.02V4.151c0-3.511-3.154-4.059-5.431-4.059c-2.866,0-5.208,0.938-5.635,3.574
			c-0.12,0.713-0.137,1.358,0.036,2.171c0.7,3.296,6.426,4.251,7.259,6.333c0.152,0.39,0.106,0.89,0.031,1.196
			c-0.132,0.536-0.497,1.072-1.571,1.072c-1.01,0-1.62-0.571-1.62-1.452l-0.003-1.565h-4.324l-0.002,1.244
			c0,3.598,2.831,4.674,5.861,4.674c2.915,0,5.312-0.985,5.694-3.676c0.197-1.393,0.052-2.306-0.017-2.65
			C63.854,7.64,57.738,6.639,57.285,4.747z"/>
		<path d="M75.75,12.556c0.002,0.21-0.004,0.447-0.039,0.623c-0.08,0.405-0.432,1.173-1.564,1.173c-1.129,0-1.48-0.768-1.561-1.173
			c-0.035-0.176-0.043-0.413-0.039-0.623V0.518h-4.115v11.666c-0.008,0.302,0.023,0.915,0.039,1.076
			c0.279,3.035,2.685,4.017,5.676,4.017c2.996,0,5.402-0.981,5.686-4.017c0.018-0.161,0.049-0.774,0.045-1.076V0.518H75.75V12.556z"
			/>
		<path d="M108.147,10.029h1.666v2.359c0.006,0.207-0.006,0.436-0.037,0.62c-0.076,0.435-0.488,1.177-1.664,1.177
			c-1.178,0-1.588-0.742-1.666-1.177c-0.029-0.185-0.039-0.413-0.037-0.62V4.944c0-0.267,0.02-0.557,0.066-0.763
			c0.09-0.402,0.439-1.185,1.621-1.185c1.244,0,1.553,0.826,1.627,1.185c0.049,0.227,0.053,0.612,0.053,0.612v0.915h4.102V5.167
			c-0.002,0,0.016-0.558-0.031-1.065c-0.301-3.062-2.832-4.023-5.717-4.023c-2.887,0-5.352,0.97-5.713,4.023
			c-0.033,0.262-0.068,0.772-0.068,1.065l-0.002,6.849c0.002,0.306,0.01,0.531,0.057,1.075c0.268,2.962,2.84,4.022,5.725,4.022
			c2.883,0,5.457-1.061,5.729-4.022c0.045-0.544,0.049-0.77,0.051-1.075V7.648h-5.76V10.029z"/>
	</g>
</g>
</svg>
