<svg xmlns="http://www.w3.org/2000/svg" width="184.45" height="17.43" viewBox="0 0 184.45 17.43"><title>samsung_knox_white_logo</title><path d="M132.71,8.9l-1.86,2.3v5.95h-3.19V0h3.19V7l5.66-7h3.88L135,6.67l5.92,10.48h-3.64Z" fill="#fff"/><path d="M142.1,3.41h3.15V5.1a5,5,0,0,1,4.11-2c3.38,0,5.45,2.21,5.45,5.88v8.15h-3.22V9.32c0-2.11-1-3.45-3.1-3.45-1.81,0-3.22,1.34-3.22,3.74v7.54H142.1V3.41Z" fill="#fff"/><path d="M156.43,10.29a7.12,7.12,0,1,1,14.23,0,7.12,7.12,0,1,1-14.23,0Zm11.11,0a4,4,0,1,0-8,0,4,4,0,1,0,8,0Z" fill="#fff"/><path d="M175.24,10.15l-5-6.75h3.88l3.12,4.37,3.1-4.37h3.76l-4.93,6.79,5.26,7h-3.88l-3.36-4.58L174,17.15h-3.88Z" fill="#fff"/><polygon points="94.29 13.3 94.2 13.3 90.45 0.52 84.41 0.52 84.41 16.63 88.41 16.63 88.19 3.41 88.28 3.41 92.3 16.63 98.1 16.63 98.1 0.52 94.07 0.52 94.29 13.3" fill="#fff"/><polygon points="17.43 0.52 14.41 16.8 18.81 16.8 21.04 2.02 21.13 2.02 23.3 16.8 27.67 16.8 24.67 0.52 17.43 0.52" fill="#fff"/><polygon points="42.02 0.52 40.01 12.97 39.92 12.97 37.92 0.52 31.28 0.52 30.92 16.8 34.99 16.8 35.09 2.16 35.18 2.16 37.91 16.8 42.03 16.8 44.75 2.16 44.84 2.16 44.95 16.8 49.02 16.8 48.66 0.52 42.02 0.52" fill="#fff"/><path d="M4.33,4.71a2.05,2.05,0,0,1,0-.85A1.35,1.35,0,0,1,5.8,2.76,1.39,1.39,0,0,1,7.31,4.24v1h4.06V4.1C11.37.56,8.19,0,5.88,0,3,0,.63,1,.19,3.62a5.6,5.6,0,0,0,0,2.19C.94,9.13,6.72,10.1,7.56,12.2a2.18,2.18,0,0,1,0,1.21A1.41,1.41,0,0,1,6,14.5,1.45,1.45,0,0,1,4.37,13V11.45H0v1.26c0,3.63,2.86,4.72,5.91,4.72s5.37-1,5.76-3.72a7.86,7.86,0,0,0,0-2.67C11,7.63,4.79,6.62,4.33,4.71Z" fill="#fff"/><path d="M57.28,4.75a2.41,2.41,0,0,1,0-.84,1.34,1.34,0,0,1,1.48-1.08,1.37,1.37,0,0,1,1.5,1.45v1h4V4.15C64.26.64,61.1.09,58.82.09c-2.86,0-5.2.94-5.63,3.58a5.32,5.32,0,0,0,0,2.17c.7,3.29,6.42,4.25,7.25,6.33a2.15,2.15,0,0,1,0,1.2,1.4,1.4,0,0,1-1.58,1.07A1.43,1.43,0,0,1,57.32,13V11.42H53v1.24c0,3.6,2.83,4.68,5.86,4.68s5.31-1,5.69-3.68a7.76,7.76,0,0,0,0-2.65C63.85,7.64,57.74,6.64,57.28,4.75Z" fill="#fff"/><path d="M75.75,12.56a3.08,3.08,0,0,1,0,.62,1.62,1.62,0,0,1-3.12,0,2.49,2.49,0,0,1,0-.62V.52H68.43V12.18c0,.31,0,.92,0,1.08.28,3,2.69,4,5.68,4s5.4-1,5.68-4c0-.16,0-.77,0-1.08V.52H75.75Z" fill="#fff"/><path d="M108.15,10h1.66v2.36a3.14,3.14,0,0,1,0,.62,1.54,1.54,0,0,1-1.67,1.18A1.52,1.52,0,0,1,106.45,13a4.12,4.12,0,0,1,0-.62V4.94a4.42,4.42,0,0,1,.06-.76A1.51,1.51,0,0,1,108.1,3a1.47,1.47,0,0,1,1.62,1.18,4.23,4.23,0,0,1,.06.61v.92h4.1V5.17s0-.56,0-1.07c-.3-3.06-2.84-4-5.72-4s-5.35,1-5.71,4a9,9,0,0,0-.07,1.07V12c0,.3,0,.53.05,1.07.27,3,2.84,4,5.73,4s5.46-1.06,5.73-4c0-.54,0-.77,0-1.07V7.65h-5.76V10Z" fill="#fff"/></svg>